<svg xmlns="http://www.w3.org/2000/svg" class="websummit-logo" enable-background="new 0 0 157.3 75.4" viewBox="0 0 157.3 75.4" x="0px" y="0px" xmlns:xml="http://www.w3.org/XML/1998/namespace" xml:space="preserve" version="1.1">
<g>
<polygon class="arrow_3" fill="#853c6d" points="107.7,0 101.3,11 107.5,21.7 113.9,10.7" />
<polygon class="arrow_2" fill="#ee3268" points="99.3,7.5 78,44.4 94.4,44.4 107.5,21.7" />
<polygon class="arrow_1" fill="#00b6b9" points="94.4,44.4 115.8,7.5 137.1,44.4" />
<path class="websummit_text" fill="#909090" d="M 151.2 75.4 c -2.6 0 -4.6 -0.6 -6.1 -1.9 s -2.2 -3.3 -2.2 -6.3 v -10 h -2.9 v -6.9 h 2.9 v -6.2 h 8.6 v 6.2 h 5.7 v 6.9 h -5.7 v 8.4 c 0 0.9 0.2 1.5 0.6 1.9 c 0.4 0.4 1 0.6 1.8 0.6 c 0.6 0 1.1 -0.1 1.7 -0.2 c 0.5 -0.2 1.1 -0.4 1.6 -0.6 v 6.7 c -0.8 0.4 -1.7 0.8 -2.7 1 C 153.5 75.2 152.4 75.4 151.2 75.4 Z" />
<path class="websummit_text" fill="#909090" d="M 12.1 75.4 c -2.1 0 -4.1 -0.3 -6.1 -0.9 c -2 -0.6 -3.8 -1.5 -5.5 -2.8 l 3.2 -5.2 c 1.4 0.9 2.9 1.6 4.3 2.1 c 1.5 0.5 2.8 0.7 4.1 0.7 c 1.5 0 2.2 -0.4 2.2 -1.3 V 68 c 0 -0.5 -0.3 -0.9 -1 -1.2 c -0.7 -0.3 -1.7 -0.6 -3 -0.9 c -1.2 -0.3 -2.3 -0.7 -3.4 -1 c -1.1 -0.4 -2 -0.9 -2.8 -1.5 c -0.8 -0.6 -1.4 -1.3 -1.9 -2.2 c -0.5 -0.8 -0.7 -1.9 -0.7 -3.1 V 58 c 0 -1.3 0.2 -2.5 0.7 -3.5 c 0.5 -1 1.2 -1.9 2.1 -2.5 c 0.9 -0.7 1.9 -1.2 3.1 -1.6 c 1.2 -0.4 2.5 -0.5 3.9 -0.5 c 1.8 0 3.6 0.2 5.3 0.7 c 1.8 0.5 3.3 1.2 4.8 2.1 l -2.9 5.4 c -1.3 -0.7 -2.6 -1.3 -3.9 -1.7 c -1.3 -0.4 -2.4 -0.6 -3.4 -0.6 c -0.7 0 -1.2 0.1 -1.5 0.3 c -0.3 0.2 -0.5 0.5 -0.5 0.9 v 0.1 c 0 0.5 0.3 0.9 1 1.2 c 0.7 0.3 1.7 0.6 2.9 1 c 1.2 0.3 2.3 0.7 3.4 1.1 c 1.1 0.4 2 0.9 2.8 1.5 c 0.8 0.6 1.4 1.3 1.9 2.2 c 0.5 0.8 0.7 1.9 0.7 3 v 0.1 c 0 1.4 -0.2 2.5 -0.7 3.6 c -0.5 1 -1.2 1.9 -2 2.6 c -0.9 0.7 -1.9 1.2 -3.2 1.6 C 14.9 75.2 13.5 75.4 12.1 75.4 Z" />
<path class="websummit_text" fill="#909090" d="M 33.8 75.4 c -2.6 0 -4.7 -0.8 -6.2 -2.4 c -1.5 -1.6 -2.2 -3.8 -2.2 -6.6 v -16 H 34 v 13.3 c 0 1.4 0.3 2.4 1 3.1 c 0.6 0.7 1.5 1 2.5 1 c 1.1 0 1.9 -0.3 2.6 -1 c 0.7 -0.7 1 -1.7 1 -3.1 V 50.4 h 8.6 v 24.5 h -8.6 v -3.4 c -0.4 0.5 -0.8 1 -1.3 1.5 c -0.5 0.5 -1 0.9 -1.6 1.2 c -0.6 0.4 -1.3 0.7 -2 0.9 C 35.5 75.3 34.7 75.4 33.8 75.4 Z" />
<path class="websummit_text" fill="#909090" d="M 121.9 52.2 c -1.5 -1.6 -3.5 -2.3 -6.2 -2.3 c -1.8 0 -3.4 0.4 -4.7 1.1 c -1.3 0.7 -2.5 1.7 -3.5 2.9 c -0.7 -1.3 -1.6 -2.2 -2.8 -2.9 c -1.2 -0.7 -2.6 -1 -4.3 -1 c -1.7 0 -3.4 0.4 -4.7 1 c -1.3 0.6 -1.8 1.1 -3 2 L 92 53.6 c -0.3 -0.5 -0.7 -1 -1.1 -1.5 c -1.5 -1.6 -3.5 -2.3 -6.2 -2.3 c -1.8 0 -3.4 0.4 -4.7 1.1 c -1.3 0.7 -2.5 1.7 -3.5 2.9 c -0.7 -1.3 -1.6 -2.2 -2.8 -2.9 c -1.2 -0.7 -2.6 -1 -4.3 -1 c -1.7 0 -3.2 0.4 -4.3 1.2 c -1.2 0.8 -2.2 1.7 -2.9 2.7 v -3.4 h -8.6 v 24.5 h 8.6 V 61.6 c 0 -1.4 0.3 -2.4 1 -3.1 c 0.6 -0.7 1.5 -1 2.5 -1 c 1 0 1.9 0.3 2.5 1 c 0.6 0.7 0.9 1.7 0.9 3.1 v 13.3 h 8.6 V 61.6 c 0 -1.4 0.3 -2.4 1 -3.1 c 0.7 -0.7 1.5 -1 2.5 -1 s 1.8 0.3 2.4 1 c 0.6 0.7 0.9 1.7 0.9 3.1 v 13.3 h 0.1 h 8.6 h 0.1 V 61.6 c 0 -1.4 0.3 -2.4 1 -3.1 c 0.7 -0.7 1.5 -1 2.5 -1 c 1 0 1.8 0.3 2.5 1 c 0.6 0.7 0.9 1.7 0.9 3.1 v 13.3 h 8.6 V 61.6 c 0 -1.4 0.3 -2.4 1 -3.1 c 0.7 -0.7 1.5 -1 2.5 -1 c 1 0 1.8 0.3 2.4 1 c 0.6 0.7 0.9 1.7 0.9 3.1 v 13.3 h 8.6 V 58.8 C 124.2 55.9 123.4 53.7 121.9 52.2 Z" />
<path class="websummit_text" fill="#909090" d="M 128 50.4 h 8.6 v 24.5 H 128 V 50.4 Z" />
<path class="websummit_text" fill="#909090" d="M 0 23.5 h 2.2 l 6.3 18.3 l 6.3 -18.4 h 1.6 l 6.3 18.4 L 29 23.5 h 2.2 l -7.6 21 h -1.7 l -6.2 -17.8 L 9.3 44.5 H 7.6 L 0 23.5 Z" />
<path class="websummit_text" fill="#909090" d="M 41.8 44.9 c -1.4 0 -2.7 -0.3 -3.9 -0.8 s -2.3 -1.3 -3.3 -2.2 c -0.9 -1 -1.7 -2.1 -2.2 -3.4 c -0.5 -1.3 -0.8 -2.8 -0.8 -4.5 v -0.1 c 0 -1.5 0.3 -2.9 0.8 -4.2 c 0.5 -1.3 1.2 -2.5 2.1 -3.4 c 0.9 -1 1.9 -1.8 3.1 -2.3 c 1.2 -0.6 2.5 -0.9 3.9 -0.9 c 1.5 0 2.8 0.3 4 0.8 s 2.2 1.3 3 2.3 c 0.8 1 1.5 2.1 1.9 3.4 C 50.7 31 51 32.4 51 34 c 0 0.2 0 0.3 0 0.4 c 0 0.1 0 0.2 0 0.4 H 33.7 c 0.1 1.3 0.4 2.5 0.9 3.5 c 0.5 1 1.1 1.9 1.8 2.6 c 0.7 0.7 1.6 1.2 2.5 1.6 c 0.9 0.4 1.9 0.5 3 0.5 c 1.6 0 3 -0.3 4.1 -0.9 c 1.1 -0.6 2.1 -1.4 3 -2.3 l 1.4 1.2 c -1.1 1.1 -2.3 2.1 -3.6 2.8 C 45.4 44.5 43.8 44.9 41.8 44.9 Z M 48.8 33 c -0.1 -1.1 -0.3 -2.1 -0.6 -3 c -0.3 -1 -0.8 -1.8 -1.4 -2.6 c -0.6 -0.7 -1.4 -1.3 -2.3 -1.8 c -0.9 -0.5 -1.9 -0.7 -3.1 -0.7 c -1 0 -2 0.2 -2.9 0.6 c -0.9 0.4 -1.7 1 -2.3 1.7 c -0.7 0.7 -1.2 1.6 -1.7 2.6 c -0.4 1 -0.7 2.1 -0.8 3.2 H 48.8 Z" />
<path class="websummit_text" fill="#909090" d="M 65.1 44.9 c -1 0 -2 -0.1 -2.9 -0.4 c -0.9 -0.3 -1.6 -0.6 -2.3 -1.1 c -0.7 -0.5 -1.3 -1 -1.9 -1.6 c -0.6 -0.6 -1.1 -1.2 -1.5 -1.9 v 4.5 h -2 V 14.6 h 2 l 0 13.6 c 0.4 -0.7 0.9 -1.3 1.5 -2 c 0.6 -0.6 1.2 -1.2 1.9 -1.6 c 0.7 -0.5 1.5 -0.8 2.3 -1.1 s 1.8 -0.4 2.8 -0.4 c 1.2 0 2.5 0.2 3.7 0.7 C 70 24.3 71 25 72 25.9 c 0.9 0.9 1.7 2.1 2.3 3.4 c 0.6 1.3 0.9 2.9 0.9 4.6 V 34 c 0 1.7 -0.3 3.2 -0.9 4.6 c -0.6 1.3 -1.4 2.5 -2.3 3.4 c -0.9 0.9 -2 1.7 -3.2 2.2 C 67.5 44.6 66.3 44.9 65.1 44.9 Z M 64.9 42.9 c 1.1 0 2.2 -0.2 3.2 -0.6 c 1 -0.4 1.9 -1 2.6 -1.8 c 0.7 -0.8 1.3 -1.7 1.7 -2.8 S 73 35.4 73 34 V 34 c 0 -1.4 -0.2 -2.6 -0.7 -3.7 c -0.4 -1.1 -1 -2.1 -1.8 -2.8 C 69.9 26.6 69 26 68 25.6 c -1 -0.4 -2 -0.6 -3.1 -0.6 c -1.1 0 -2.1 0.2 -3.2 0.7 c -1 0.4 -1.9 1 -2.7 1.8 c -0.8 0.8 -1.4 1.7 -1.9 2.8 c -0.5 1.1 -0.7 2.3 -0.7 3.6 V 34 c 0 1.3 0.2 2.6 0.7 3.7 c 0.5 1.1 1.1 2 1.9 2.8 c 0.8 0.8 1.7 1.4 2.7 1.8 C 62.7 42.7 63.8 42.9 64.9 42.9 Z" />
</g>
</svg>